<svg width="115" height="105" viewBox="0 0 115 105" fill="none" xmlns="http://www.w3.org/2000/svg">
<path d="M81.7724 104.406H40.5962C39.3877 104.406 38.4171 103.426 38.4171 102.227C38.4171 101.028 39.3972 100.047 40.5962 100.047H81.7724C82.9048 100.047 83.9611 99.4384 84.5225 98.4583L110.216 53.9611C110.777 52.9809 110.777 51.7628 110.216 50.7827L84.5225 6.28545C83.9611 5.30529 82.9048 4.69626 81.7724 4.69626H30.3855C29.2531 4.69626 28.1968 5.30529 27.6353 6.28545L14.5507 28.9433C13.9512 29.99 12.6189 30.3421 11.5722 29.7426C10.5254 29.1431 10.1733 27.8108 10.7728 26.7641L23.8574 4.10626C25.1992 1.78434 27.7019 0.337891 30.3855 0.337891H81.7724C84.4559 0.337891 86.9586 1.78434 88.3004 4.10626L113.994 48.6035C115.336 50.9254 115.336 53.8183 113.994 56.1402L88.3004 100.637C86.9586 102.959 84.4559 104.406 81.7724 104.406Z" fill="white"/>
<path d="M62.3786 62.5928C62.3691 62.4691 62.3596 62.3454 62.3405 62.2312C62.2739 61.3271 62.1597 60.4421 62.0265 59.5857C61.8838 58.7483 61.7125 57.9299 61.5127 57.1305C61.4556 56.8641 61.3889 56.5976 61.3128 56.3407C61.2462 56.0933 61.1701 55.8649 61.1035 55.6175C60.8751 54.7896 60.6086 53.9902 60.3041 53.2004C60.1423 52.7436 59.971 52.3059 59.7712 51.8681C59.4381 51.0688 59.0765 50.279 58.6769 49.4986C58.458 49.0419 58.2106 48.5946 57.9822 48.1569C57.9727 48.1474 57.9727 48.1378 57.9632 48.1188C57.7348 47.6906 57.4969 47.2719 57.2399 46.8532C57.1352 46.6819 57.0306 46.5011 56.9259 46.3393C56.0885 44.9404 55.1749 43.5796 54.2043 42.2664C54.052 42.0475 53.8903 41.8287 53.7285 41.6193C53.7095 41.5812 53.6809 41.5622 53.6714 41.5337L53.6524 41.5146C53.2337 40.9722 52.8149 40.4108 52.3867 39.8779C51.7587 39.088 51.1211 38.2982 50.474 37.5369C50.1885 37.2038 49.8935 36.8517 49.608 36.5187C49.1988 36.0429 48.7992 35.5671 48.3804 35.0913C47.7429 34.349 47.0958 33.6163 46.4582 32.8835C46.2108 32.6076 45.9729 32.3316 45.7159 32.0461C44.3076 30.4474 42.9277 28.8582 41.5955 27.2405C41.4908 27.1168 41.3956 26.9931 41.291 26.8694C41.034 26.5553 40.7771 26.2413 40.5297 25.9273C40.4916 25.8892 40.4726 25.8416 40.4345 25.8131C39.0737 24.1002 37.7986 22.3302 36.6566 20.5317C36.6566 20.5221 36.6471 20.5221 36.6471 20.5126C36.3426 20.0178 36.0476 19.5134 35.7526 19.0091C35.7145 18.952 35.686 18.8949 35.6574 18.8378C34.3442 16.5254 33.3165 14.0893 32.6408 11.5199C32.6313 11.4628 32.5933 11.4057 32.5933 11.3486C32.5742 11.4057 32.5362 11.4628 32.5362 11.5199C31.851 14.1654 30.7757 16.6491 29.4244 19.0091V19.0281C29.0342 19.7038 29.5196 20.5412 30.2999 20.5412C31.556 20.5412 32.5837 21.5594 32.5837 22.825V23.2437C32.5837 24.7378 31.3752 25.9368 29.8907 25.9368H27.5212C25.5989 25.9368 24.0478 27.4879 24.0478 29.4102C24.0478 31.3324 25.5989 32.8835 27.5212 32.8835H38.7311C39.3402 32.8835 39.835 33.3784 39.835 33.9874C39.835 34.5964 39.3402 35.0913 38.7311 35.0913H22.8107C20.8314 35.0913 19.2231 36.6995 19.2231 38.6788C19.2231 40.6582 20.8314 42.2664 22.8107 42.2664H34.1444C35.2673 42.2664 36.1808 43.18 36.1808 44.3028C36.1808 45.4257 35.2673 46.3393 34.1444 46.3393H13.7704C12.2479 46.3393 11.0108 47.5764 11.0108 49.099C11.0108 50.6215 12.2479 51.8586 13.7704 51.8586H45.6969C46.068 51.8586 46.363 52.1536 46.363 52.5247C46.363 52.8959 46.068 53.1909 45.6969 53.1909H25.2849C23.0296 53.1909 21.193 55.018 21.193 57.2828V58.8815C21.193 60.7181 19.699 62.2121 17.8623 62.2121H6.3574C5.37724 62.2121 4.5874 63.002 4.5874 63.9821C4.5874 64.9623 5.37724 65.7521 6.3574 65.7521H29.4529C30.6044 65.7521 31.537 66.6847 31.537 67.8361C31.537 69.2636 32.6979 70.4245 34.1253 70.4245H61.998C62.0931 69.9487 62.1597 69.4729 62.2168 68.9876C62.3691 67.9313 62.4452 66.856 62.4643 65.7521C62.4738 65.5713 62.4738 65.381 62.4738 65.2002V65.1336C62.4738 64.2676 62.4357 63.4016 62.3786 62.5737V62.5928Z" fill="white"/>
<path d="M38.3504 74.3744H9.77362C8.28911 74.3744 7.08057 75.583 7.08057 77.0675C7.08057 78.552 8.28911 79.7605 9.77362 79.7605H33.5829C34.2205 79.7605 34.7438 80.2839 34.7438 80.9215C34.7438 81.5591 34.2205 82.0825 33.5829 82.0825H27.9494C26.4839 82.0825 25.2849 83.272 25.2849 84.747C25.2849 86.222 26.4744 87.4115 27.9494 87.4115H40.5677C40.9198 87.4115 41.2148 87.697 41.2148 88.0586C41.2148 88.4107 40.9293 88.7057 40.5677 88.7057H16.3397C15.6355 88.7057 15.3501 89.6192 15.94 90.0189H15.9591C20.6886 93.2068 26.3887 95.0814 32.5266 95.091H32.6313C37.7319 95.0814 42.5375 93.7777 46.7341 91.5034C46.9054 91.4082 47.0672 91.3131 47.248 91.2179C47.9046 90.8563 48.5612 90.4661 49.1893 90.0379C49.8173 89.6192 50.4168 89.191 50.9973 88.7152C51.5302 88.306 52.0441 87.8778 52.5389 87.4305C52.8625 87.145 53.186 86.8405 53.5001 86.5265C53.5857 86.4599 53.6523 86.3837 53.7284 86.3076L53.8236 86.2124C54.0805 85.9555 54.3184 85.6891 54.5563 85.4416C54.8038 85.1657 55.0417 84.8897 55.2891 84.6137C55.4889 84.3758 55.6888 84.1379 55.8886 83.8905C56.3549 83.3196 56.7831 82.7296 57.1923 82.13C57.4017 81.8446 57.6015 81.5496 57.7823 81.245C58.0963 80.7692 58.3818 80.2839 58.6673 79.7796C58.9433 79.2657 59.2097 78.7614 59.4666 78.238C59.6379 77.8859 59.7997 77.5433 59.952 77.1817C59.9615 77.1436 59.971 77.1246 59.99 77.0865C60.1899 76.6583 60.3707 76.2206 60.5324 75.7733C60.7037 75.3165 60.8655 74.8598 61.0083 74.3935C61.132 74.0319 61.2366 73.6702 61.3318 73.3181C61.4555 72.909 61.5602 72.4902 61.6649 72.0811H40.6629C40.1966 72.0811 39.8254 72.4617 39.8254 72.9185C39.8254 73.7369 39.1593 74.3935 38.3504 74.3935V74.3744Z" fill="white"/>
<path d="M21.1354 86.9251C22.2023 86.9251 23.0671 86.0602 23.0671 84.9933C23.0671 83.9264 22.2023 83.0615 21.1354 83.0615C20.0685 83.0615 19.2036 83.9264 19.2036 84.9933C19.2036 86.0602 20.0685 86.9251 21.1354 86.9251Z" fill="white"/>
<path d="M16.311 86.2783C17.0205 86.2783 17.5957 85.7032 17.5957 84.9937C17.5957 84.2842 17.0205 83.709 16.311 83.709C15.6015 83.709 15.0264 84.2842 15.0264 84.9937C15.0264 85.7032 15.6015 86.2783 16.311 86.2783Z" fill="white"/>
<path d="M19.2035 58.1113C19.2035 59.5958 18.0045 60.7948 16.52 60.7948C15.0355 60.7948 13.8364 59.5958 13.8364 58.1113C13.8364 56.6268 15.0355 55.4277 16.52 55.4277C18.0045 55.4277 19.2035 56.6268 19.2035 58.1113Z" fill="white"/>
<path d="M3.12128 64.211C3.12128 65.077 2.4266 65.7717 1.56064 65.7717C0.694674 65.7717 0 65.077 0 64.211C0 63.3451 0.694674 62.6504 1.56064 62.6504C2.4266 62.6504 3.12128 63.3451 3.12128 64.211Z" fill="white"/>
<path d="M16.4811 38.9929C16.4811 38.9929 13.9879 40.7914 12.9982 40.7914C12.0086 40.7914 11.1997 39.9825 11.1997 38.9929C11.1997 38.0032 12.0086 37.1943 12.9982 37.1943C13.9879 37.1943 16.4811 38.9929 16.4811 38.9929Z" fill="white"/>
<path d="M29.5093 69.3689C29.5093 70.0541 28.9574 70.606 28.2723 70.606C27.5871 70.606 27.0352 70.0541 27.0352 69.3689C27.0352 68.6838 27.5871 68.1318 28.2723 68.1318C28.9574 68.1318 29.5093 68.6838 29.5093 69.3689Z" fill="white"/>
<path d="M24.8846 69.3693C24.8846 69.6928 24.6181 69.9593 24.2946 69.9593C23.971 69.9593 23.7046 69.6928 23.7046 69.3693C23.7046 69.0457 23.971 68.7793 24.2946 68.7793C24.6181 68.7793 24.8846 69.0457 24.8846 69.3693Z" fill="white"/>
</svg>
